<svg
			width="16"
			height="16"
			viewBox="0 0 16 16"
			fill="currentColor"
			xmlns="http://www.w3.org/2000/svg"
		>
			<path
				fillRule="evenodd"
				clipRule="evenodd"
				d="M8.4 14H5.6C2.96013 14 1.6402 14 0.820101 13.1799C0 12.3598 0 11.0399 0 8.4V5.6C0 2.96013 0 1.6402 0.820101 0.820101C1.6402 0 2.96709 0 5.62085 0C6.04506 0 6.38498 -2.98582e-07 6.67101 0.0116628C6.66159 0.0676149 6.65666 0.124689 6.65646 0.182396L6.65 2.16648C6.64994 2.93445 6.64988 3.61315 6.72343 4.16021C6.80316 4.75319 6.98621 5.34608 7.4701 5.82997C7.95399 6.31386 8.54688 6.49692 9.13986 6.57664C9.68693 6.65019 10.3656 6.65014 11.1336 6.65008L11.2 6.65007H13.9702C14 7.02406 14 7.48307 14 8.09403V8.4C14 11.0399 14 12.3598 13.1799 13.1799C12.3598 14 11.0399 14 8.4 14Z"
			/>
			<path d="M12.1462 3.93166L9.37506 1.43763C8.58556 0.727076 8.19081 0.3718 7.70646 0.185937L7.7 2.10007C7.7 3.74999 7.7 4.57495 8.21256 5.08751C8.72513 5.60007 9.55008 5.60007 11.2 5.60007H13.7061C13.4523 5.10712 12.9979 4.69815 12.1462 3.93166Z" />
		</svg>
        