<svg
			width="14"
			height="10"
			viewBox="0 0 14 10"
			fill="currentColor"
			xmlns="http://www.w3.org/2000/svg"
		>
			<path
				fill-rule="evenodd"
				clip-rule="evenodd"
				d="M1.96001 0C0.877529 0 0 0.895439 0 2.00001V7.99999C0 9.10459 0.877529 10 1.96002 10H12.04C13.1225 10 14 9.10459 14 7.99999V2.00001C14 0.895439 13.1225 0 12.04 0H1.96001ZM8.35328 2.14285C7.99244 2.14285 7.69994 2.44134 7.69994 2.80953V5.76191C7.69994 6.13011 7.99244 6.42858 8.35328 6.42858H11.2466C11.6074 6.42858 11.8999 6.13011 11.8999 5.76191V2.80953C11.8999 2.44134 11.6074 2.14285 11.2466 2.14285H8.35328ZM1.61 2.85718C1.61 2.58103 1.82938 2.35718 2.1 2.35718H4.90001C5.17063 2.35718 5.39001 2.58103 5.39001 2.85718C5.39001 3.13332 5.17063 3.35718 4.90001 3.35718H2.1C1.82938 3.35718 1.61 3.13332 1.61 2.85718ZM2.1 5.2143C1.82938 5.2143 1.61 5.4381 1.61 5.7143C1.61 5.99044 1.82938 6.21431 2.1 6.21431H4.90001C5.17063 6.21431 5.39001 5.99044 5.39001 5.7143C5.39001 5.4381 5.17063 5.2143 4.90001 5.2143H2.1Z"
			/>
		</svg>