<svg width="14" height="10" viewBox="0 0 14 10"
			fill="currentColor"
			xmlns="http://www.w3.org/2000/svg">
<path d="M4.55005 4.91241C5.90314 4.91241 7.00008 3.8127 7.00008 2.45618C7.00008 1.09968 5.90314 0 4.55005 0C3.19695 0 2.10005 1.09968 2.10005 2.45618C2.10005 3.8127 3.19695 4.91241 4.55005 4.91241Z" fill="#777777"/>
<path d="M0 8.24556C0 7.27662 0.783501 6.49113 1.75 6.49113H7.35003C8.31653 6.49113 9.09998 7.27662 9.09998 8.24556C9.09998 9.21451 8.31653 10 7.35003 10H1.75C0.783501 10 0 9.21451 0 8.24556Z" fill="#777777"/>
<path d="M12.25 6.49113H9.91038C10.9736 7.41791 10.9736 9.07321 9.91038 10H12.25C13.2165 10 14 9.21451 14 8.24556C14 7.27662 13.2165 6.49113 12.25 6.49113Z" fill="#777777"/>
<path d="M12.6 3.15768C12.6 4.12668 11.8165 4.91211 10.85 4.91211C9.88354 4.91211 9.10003 4.12668 9.10003 3.15768C9.10003 2.18873 9.88354 1.40328 10.85 1.40328C11.8165 1.40328 12.6 2.18873 12.6 3.15768Z" fill="#777777"/>
</svg>
